<svg xmlns="http://www.w3.org/2000/svg" width="22.913" height="32.561" viewBox="0 0 22.913 32.561">
  <g id="Page-1" transform="translate(-7 -3)">
    <g id="icon-56-document-text" transform="translate(7 3)">
      <path id="document-text" d="M22.075,3H9.415A2.418,2.418,0,0,0,7,5.421V33.14a2.412,2.412,0,0,0,2.409,2.421H27.5a2.41,2.41,0,0,0,2.409-2.4V11.442L22.678,3Zm-.6,1.206H9.407a1.208,1.208,0,0,0-1.2,1.2V33.155a1.209,1.209,0,0,0,1.206,1.2H27.5a1.2,1.2,0,0,0,1.206-1.2V12.648H23.881a2.4,2.4,0,0,1-2.409-2.419V4.206Zm1.206.6v5.416a1.213,1.213,0,0,0,1.2,1.217h4.466L22.678,4.809Zm-12.06,6.633v1.206h6.03V11.442Zm0-3.618V9.03H19.06V7.824Zm0,7.236v1.206H26.3V15.06Zm0,3.618v1.206h12.06V18.678Zm0,3.618V23.5H26.3V22.3Zm0,3.618v1.206H21.472V25.913Zm0,3.618v1.206H26.3V29.531Z" transform="translate(-7 -3)" fill="#4caf50" fill-rule="evenodd"/>
    </g>
  </g>
</svg>
