<svg xmlns="http://www.w3.org/2000/svg" width="35.549" height="32.256" viewBox="0 0 35.549 32.256">
  <path id="iconfinder_home_216242" d="M19.275,3S8.589,12.225,2.617,17.221A1.8,1.8,0,0,0,2,18.547a1.726,1.726,0,0,0,1.727,1.727H7.182V32.368A1.726,1.726,0,0,0,8.91,34.1h5.183a1.727,1.727,0,0,0,1.727-1.727V25.457h6.91v6.91a1.727,1.727,0,0,0,1.727,1.727H29.64a1.726,1.726,0,0,0,1.727-1.727V20.274h3.455a1.726,1.726,0,0,0,1.726-1.727,1.693,1.693,0,0,0-.662-1.327C29.957,12.225,19.275,3,19.275,3Z" transform="translate(-1.5 -2.339)" fill="#fff" stroke="#fff" stroke-width="1"/>
</svg>
