<svg xmlns="http://www.w3.org/2000/svg" width="32" height="32" viewBox="0 0 32 32">
  <g id="iconfinder_printer_322490" transform="translate(288 144)">
    <path id="Path_1" data-name="Path 1" d="M-278-120h10v2h-10Z" fill="#4caf50"/>
    <path id="Path_2" data-name="Path 2" d="M-280-142h16v4h2v-4a2,2,0,0,0-2-2h-16a2,2,0,0,0-2,2v4h2Z" fill="#4caf50"/>
    <path id="Path_3" data-name="Path 3" d="M-278-124h12v2h-12Z" fill="#4caf50"/>
    <path id="Path_4" data-name="Path 4" d="M-258-136h-28a2,2,0,0,0-2,2v12a2,2,0,0,0,2,2h4v6a2,2,0,0,0,2,2h16a2,2,0,0,0,2-2v-6h4a2,2,0,0,0,2-2v-12A2,2,0,0,0-258-136Zm-6,22h-16v-12h16Zm4-16a2,2,0,0,1-2-2,2,2,0,0,1,2-2,2,2,0,0,1,2,2A2,2,0,0,1-260-130Z" fill="#4caf50"/>
  </g>
</svg>
